# Blender v2.80 (sub 39) OBJ File: 'sc_prop.blend'
# www.blender.org
mtllib sc_prop.mtl
o Prop_Circle.001
v 0.090668 -0.025196 -0.336169
v 0.024139 -0.091724 -0.336169
v -0.066741 -0.067373 -0.336169
v -0.000212 -0.000848 -0.006662
v 0.083579 -0.084635 -0.030166
v -0.091093 0.023507 -0.336169
v 0.066317 0.065685 -0.080591
v -0.024564 0.090036 -0.080591
v -0.091093 0.023507 -0.080591
v -0.066741 -0.067373 -0.080591
v 0.024139 -0.091724 -0.080591
v 0.090668 -0.025196 -0.080591
v 0.928523 0.927892 -0.107249
v 0.883991 0.972424 -0.092229
v 0.883991 0.972424 -0.062190
v 0.928523 0.927892 -0.047170
v 0.973056 0.883359 -0.062190
v 0.973056 0.883359 -0.092229
v -0.000214 -0.000846 -0.149896
v -0.084005 0.082946 -0.124253
v -0.084005 0.082946 -0.030166
v -0.024564 0.090036 -0.336169
v 0.066317 0.065685 -0.336169
v 0.083578 -0.084637 -0.124253
v -0.929464 -0.930096 -0.107249
v -0.973996 -0.885564 -0.092229
v -0.973996 -0.885564 -0.062190
v -0.929464 -0.930096 -0.047170
v -0.884932 -0.974628 -0.062190
v -0.884932 -0.974628 -0.092229
v 0.000612 1.318475 -0.083959
v 0.257838 1.293141 -0.083959
v 0.505178 1.218111 -0.083959
v 0.733129 1.096269 -0.083959
v 0.932929 0.932297 -0.083959
v 1.096901 0.732497 -0.083959
v 1.218743 0.504546 -0.083959
v 1.293773 0.257205 -0.083959
v 1.319108 -0.000020 -0.083959
v 1.293773 -0.257246 -0.083959
v 1.218743 -0.504586 -0.083959
v 1.096901 -0.732537 -0.083959
v 0.932929 -0.932337 -0.083959
v 0.733129 -1.096309 -0.083959
v 0.505178 -1.218152 -0.083959
v 0.257837 -1.293181 -0.083959
v 0.000611 -1.318516 -0.083959
v -0.256614 -1.293181 -0.083959
v -0.503955 -1.218151 -0.083959
v -0.731906 -1.096309 -0.083959
v -0.931706 -0.932337 -0.083959
v -1.095678 -0.732537 -0.083959
v -1.217520 -0.504586 -0.083959
v -1.292549 -0.257245 -0.083959
v -1.317884 -0.000019 -0.083959
v -1.292549 0.257207 -0.083959
v -1.217519 0.504548 -0.083959
v -1.095676 0.732498 -0.083959
v -0.931704 0.932298 -0.083959
v -0.731904 1.096270 -0.083959
v -0.503953 1.218112 -0.083959
v -0.256612 1.293141 -0.083959
v -0.000316 1.319403 -0.092424
v 0.256910 1.294069 -0.092424
v 0.504251 1.219039 -0.092424
v 0.732201 1.097197 -0.092424
v 0.932001 0.933225 -0.092424
v 1.095973 0.733424 -0.092424
v 1.217815 0.505474 -0.092424
v 1.292845 0.258133 -0.092424
v 1.318180 0.000908 -0.092424
v 1.292845 -0.256318 -0.092424
v 1.217815 -0.503659 -0.092424
v 1.095973 -0.731609 -0.092424
v 0.932001 -0.931410 -0.092424
v 0.732201 -1.095381 -0.092424
v 0.504250 -1.217224 -0.092424
v 0.256909 -1.292253 -0.092424
v -0.000316 -1.317588 -0.092424
v -0.257542 -1.292253 -0.092424
v -0.504883 -1.217223 -0.092424
v -0.732833 -1.095381 -0.092424
v -0.932633 -0.931409 -0.092424
v -1.096606 -0.731609 -0.092424
v -1.218447 -0.503658 -0.092424
v -1.293477 -0.256317 -0.092424
v -1.318811 0.000909 -0.092424
v -1.293477 0.258135 -0.092424
v -1.218446 0.505475 -0.092424
v -1.096604 0.733426 -0.092424
v -0.932632 0.933226 -0.092424
v -0.732831 1.097198 -0.092424
v -0.504880 1.219039 -0.092424
v -0.257540 1.294069 -0.092424
vt 0.530885 0.796043
vt 0.806207 0.287425
vt 0.291116 0.015606
vt 0.672999 0.721029
vt 0.091755 0.664541
vt 0.149003 0.090619
vt 0.216319 0.046203
vt 0.149003 0.090619
vt 0.091756 0.147148
vt 0.046777 0.213619
vt 0.015795 0.287476
vt 0.000000 0.365881
vt 0.000000 0.445820
vt 0.015794 0.524223
vt 0.046776 0.598076
vt 0.091755 0.664541
vt 0.149003 0.721063
vt 0.216319 0.765471
vt 0.291116 0.796058
vt 0.370521 0.811648
vt 0.451481 0.811643
vt 0.605683 0.765446
vt 0.672999 0.721029
vt 0.730246 0.664500
vt 0.775225 0.598029
vt 0.806207 0.524172
vt 0.822002 0.445767
vt 0.822002 0.365827
vt 0.775225 0.213572
vt 0.730246 0.147107
vt 0.672998 0.090585
vt 0.605683 0.046177
vt 0.530885 0.015590
vt 0.451481 0.000000
vt 0.370521 0.000005
vt 0.216319 0.046203
vt 0.291116 0.015606
vt 0.370521 0.000005
vt 0.451481 0.000000
vt 0.530885 0.015590
vt 0.605683 0.046177
vt 0.672998 0.090585
vt 0.730246 0.147107
vt 0.775225 0.213572
vt 0.806207 0.287425
vt 0.822002 0.365827
vt 0.822002 0.445767
vt 0.806207 0.524172
vt 0.775225 0.598029
vt 0.730246 0.664500
vt 0.605683 0.765446
vt 0.530885 0.796043
vt 0.451481 0.811643
vt 0.370521 0.811648
vt 0.291116 0.796058
vt 0.216319 0.765471
vt 0.149003 0.721063
vt 0.046776 0.598076
vt 0.015794 0.524223
vt 0.000000 0.445820
vt 0.000000 0.365881
vt 0.015795 0.287476
vt 0.046777 0.213619
vt 0.091756 0.147148
vt 0.048925 0.811648
vt 0.029480 0.999888
vt 0.058960 0.999888
vt 0.933390 0.000000
vt 0.953124 0.406564
vt 0.970520 0.000236
vt 0.913657 0.813357
vt 0.933390 0.406811
vt 0.896261 0.407016
vt 0.953123 0.813357
vt 0.970520 0.407016
vt 0.913658 0.406564
vt 0.896261 0.000237
vt 0.980554 0.813311
vt 1.000000 0.406768
vt 0.970520 0.406768
vt 0.197691 0.813834
vt 0.206839 0.851133
vt 0.215987 0.829205
vt 1.000000 0.406768
vt 0.980562 0.000000
vt 0.989974 0.000000
vt 0.859131 0.406811
vt 0.878864 0.813565
vt 0.859131 0.813444
vt 0.859131 0.000000
vt 0.839398 0.406811
vt 0.822002 0.000259
vt 0.878864 0.406811
vt 0.859131 0.406659
vt 0.839398 0.813565
vt 0.822002 0.406999
vt 0.000000 1.000000
vt 0.019446 0.811648
vt 0.029480 1.000000
vt 0.215987 0.830837
vt 0.230105 0.811648
vt 0.230105 0.850025
vt 0.168222 0.890694
vt 0.197691 0.811648
vt 0.197691 0.890694
vt 0.117921 0.890694
vt 0.145605 0.811648
vt 0.145605 0.890694
vt 0.073701 0.890694
vt 0.103181 0.811648
vt 0.103181 0.890694
vt 0.058960 0.890694
vt 0.073701 0.811648
vt 0.168222 0.811648
vt 0.117921 0.811648
vt 0.039512 0.811649
vt 0.933391 0.406413
vt 0.933390 0.813237
vt 0.989966 0.813311
vt 0.206839 0.811648
vt 0.197691 0.833577
vt 0.215987 0.848947
vt 0.970520 0.406768
vt 0.896261 0.407000
vt 0.896261 0.000259
vt 0.010034 0.811648
vt 0.220693 0.850025
vt 0.220693 0.811648
vt 0.234812 0.830837
vt 0.058960 0.811648
vn -0.0000 0.0000 1.0000
vn 0.0000 -0.0000 -1.0000
vn 0.7363 -0.6766 -0.0000
vn -0.1148 0.1602 0.9804
vn -0.1263 0.1726 -0.9769
vn 0.1726 -0.1263 -0.9769
vn 0.1602 -0.1148 0.9804
vn -0.6766 0.7363 0.0000
vn 0.7071 0.7071 0.0000
vn 0.6766 -0.7363 0.0000
vn -0.1852 0.1428 0.9723
vn -0.1726 0.1263 -0.9769
vn 0.1416 -0.1863 -0.9722
vn 0.1148 -0.1602 0.9804
vn -0.7363 0.6766 0.0000
vn -0.7071 -0.7071 0.0000
vn 0.7071 -0.7071 0.0000
vn -0.9659 -0.2588 0.0000
vn 0.2588 0.9659 0.0000
vn 0.9659 0.2588 0.0000
vn -0.2588 -0.9659 0.0000
vn -0.7071 0.7071 0.0000
vn -0.1428 0.1852 0.9723
vn -0.1416 0.1863 -0.9722
vn 0.1863 -0.1416 -0.9722
vn 0.1852 -0.1428 0.9723
vn -0.1602 0.1148 0.9804
vn -0.1863 0.1416 -0.9722
vn 0.1263 -0.1726 -0.9769
vn 0.1428 -0.1852 0.9723
usemtl Prop
s off
f 49/1/1 41/2/1 33/3/1
f 79/4/2 87/5/2 63/6/2
f 33/3/1 32/7/1 31/8/1
f 31/8/1 62/9/1 61/10/1
f 61/10/1 60/11/1 59/12/1
f 59/12/1 58/13/1 57/14/1
f 57/14/1 56/15/1 55/16/1
f 55/16/1 54/17/1 53/18/1
f 53/18/1 52/19/1 51/20/1
f 51/20/1 50/21/1 49/1/1
f 49/1/1 48/22/1 47/23/1
f 47/23/1 46/24/1 45/25/1
f 45/25/1 44/26/1 43/27/1
f 43/27/1 42/28/1 41/2/1
f 41/2/1 40/29/1 39/30/1
f 39/30/1 38/31/1 37/32/1
f 37/32/1 36/33/1 35/34/1
f 35/34/1 34/35/1 33/3/1
f 33/3/1 31/8/1 61/10/1
f 61/10/1 59/12/1 57/14/1
f 57/14/1 55/16/1 53/18/1
f 53/18/1 51/20/1 49/1/1
f 49/1/1 47/23/1 45/25/1
f 45/25/1 43/27/1 41/2/1
f 41/2/1 39/30/1 37/32/1
f 37/32/1 35/34/1 33/3/1
f 33/3/1 61/10/1 57/14/1
f 57/14/1 53/18/1 49/1/1
f 49/1/1 45/25/1 41/2/1
f 41/2/1 37/32/1 33/3/1
f 33/3/1 57/14/1 49/1/1
f 63/6/2 64/36/2 65/37/2
f 65/37/2 66/38/2 67/39/2
f 67/39/2 68/40/2 69/41/2
f 69/41/2 70/42/2 71/43/2
f 71/43/2 72/44/2 73/45/2
f 73/45/2 74/46/2 75/47/2
f 75/47/2 76/48/2 77/49/2
f 77/49/2 78/50/2 79/4/2
f 79/4/2 80/51/2 81/52/2
f 81/52/2 82/53/2 83/54/2
f 83/54/2 84/55/2 85/56/2
f 85/56/2 86/57/2 87/5/2
f 87/5/2 88/58/2 89/59/2
f 89/59/2 90/60/2 91/61/2
f 91/61/2 92/62/2 93/63/2
f 93/63/2 94/64/2 63/6/2
f 63/6/2 65/37/2 67/39/2
f 67/39/2 69/41/2 71/43/2
f 71/43/2 73/45/2 75/47/2
f 75/47/2 77/49/2 79/4/2
f 79/4/2 81/52/2 83/54/2
f 83/54/2 85/56/2 87/5/2
f 87/5/2 89/59/2 91/61/2
f 91/61/2 93/63/2 63/6/2
f 63/6/2 67/39/2 71/43/2
f 71/43/2 75/47/2 79/4/2
f 79/4/2 83/54/2 87/5/2
f 87/5/2 91/61/2 63/6/2
f 63/6/2 71/43/2 79/4/2
usemtl Wood.001
f 18/65/3 5/66/3 24/67/3
f 4/68/4 15/69/4 21/70/4
f 14/71/5 19/72/5 20/73/5
f 19/72/6 18/74/6 24/75/6
f 17/76/7 4/68/7 5/77/7
f 15/78/8 20/79/8 21/80/8
f 15/81/9 17/82/9 13/83/9
f 24/84/10 29/85/10 30/86/10
f 4/87/11 27/88/11 28/89/11
f 19/90/12 26/91/12 20/92/12
f 19/90/13 30/93/13 25/94/13
f 4/87/14 29/95/14 5/96/14
f 20/97/15 27/98/15 21/99/15
f 25/100/16 29/101/16 27/102/16
f 11/103/17 1/104/17 12/105/17
f 9/106/18 3/107/18 10/108/18
f 7/109/19 22/110/19 8/111/19
f 12/112/20 23/113/20 7/109/20
f 10/108/21 2/114/21 11/103/21
f 8/111/22 6/115/22 9/106/22
f 9/106/1 11/103/1 7/109/1
f 18/65/3 17/116/3 5/66/3
f 4/68/23 16/117/23 15/69/23
f 14/71/24 13/118/24 19/72/24
f 19/72/25 13/118/25 18/74/25
f 17/76/26 16/117/26 4/68/26
f 15/78/8 14/119/8 20/79/8
f 13/83/9 14/120/9 15/81/9
f 15/81/9 16/121/9 17/82/9
f 17/82/9 18/122/9 13/83/9
f 24/84/10 5/123/10 29/85/10
f 4/87/27 21/124/27 27/88/27
f 19/90/28 25/94/28 26/91/28
f 19/90/29 24/125/29 30/93/29
f 4/87/30 28/89/30 29/95/30
f 20/97/15 26/126/15 27/98/15
f 27/102/16 26/127/16 25/100/16
f 25/100/16 30/128/16 29/101/16
f 29/101/16 28/129/16 27/102/16
f 11/103/17 2/114/17 1/104/17
f 9/106/18 6/115/18 3/107/18
f 7/109/19 23/113/19 22/110/19
f 12/112/20 1/130/20 23/113/20
f 10/108/21 3/107/21 2/114/21
f 8/111/22 22/110/22 6/115/22
f 7/109/1 8/111/1 9/106/1
f 9/106/1 10/108/1 11/103/1
f 11/103/1 12/105/1 7/109/1
