# Blender v2.80 (sub 60) OBJ File: 'tree.blend'
# www.blender.org
mtllib tree.mtl
o Cube
v 0.000000 -0.348624 -0.200000
v -0.141421 -0.348624 -0.141421
v -0.200000 -0.348624 0.000000
v -0.141421 -0.348624 0.141421
v 0.000000 -0.348624 0.200000
v 0.141421 -0.348624 0.141421
v 0.200000 -0.348624 -0.000000
v 0.141421 -0.348624 -0.141421
v 0.000000 5.169766 -0.200000
v -0.141421 5.169766 -0.141421
v -0.200000 5.169766 0.000000
v -0.141421 5.169766 0.141421
v 0.000000 5.169766 0.200000
v 0.141421 5.169766 0.141421
v 0.200000 5.169766 -0.000000
v 0.141421 5.169766 -0.141421
v -0.000000 5.003847 -0.566754
v -0.400756 5.003847 -0.400756
v -0.566754 5.003847 0.000000
v -0.400756 5.003847 0.400756
v 0.000000 5.003847 0.566754
v 0.400756 5.003847 0.400755
v 0.566754 5.003847 -0.000000
v 0.400756 5.003847 -0.400755
v 0.000000 5.841473 -0.000000
v 0.437979 5.003847 -0.000000
v 0.309698 5.003847 0.309698
v 0.000000 5.003847 0.437979
v -0.309698 5.003847 0.309698
v -0.437979 5.003847 0.000000
v -0.309698 5.003847 -0.309698
v -0.000000 5.003847 -0.437979
v 0.309698 5.003847 -0.309698
v 1.177085 3.528452 -0.000000
v 0.832325 3.528452 0.832325
v 0.000000 3.528452 1.177085
v -0.832325 3.528452 0.832325
v -1.177085 3.528452 0.000000
v -0.832325 3.528452 -0.832325
v -0.000000 3.528452 -1.177085
v 0.832325 3.528452 -0.832325
v 0.757817 3.528452 -0.000000
v 0.535858 3.528452 0.535858
v 0.000000 3.528452 0.757817
v -0.535858 3.528452 0.535858
v -0.757817 3.528452 0.000000
v -0.535858 3.528452 -0.535858
v -0.000000 3.528452 -0.757817
v 0.535858 3.528452 -0.535858
v 1.660386 1.750972 0.000000
v 1.174070 1.750972 1.174070
v 0.000000 1.750972 1.660386
v -1.174070 1.750972 1.174070
v -1.660386 1.750972 0.000000
v -1.174070 1.750972 -1.174070
v -0.000000 1.750972 -1.660386
v 1.174070 1.750972 -1.174070
vt 0.000000 0.000000
vt 0.000000 0.000000
vt 0.000000 0.000000
vt 0.000000 0.000000
vt 0.000000 0.000000
vt 0.000000 0.000000
vt 0.000000 0.000000
vt 0.000000 0.000000
vt 0.000000 0.000000
vt 0.000000 0.000000
vt 0.000000 0.000000
vt 0.000000 0.000000
vt 0.000000 0.000000
vt 0.000000 0.000000
vt 0.000000 0.000000
vt 0.000000 0.000000
vt 0.000000 0.000000
vt 0.000000 0.000000
vt 0.000000 0.000000
vt 0.000000 0.000000
vt 0.000000 0.000000
vt 0.000000 0.000000
vt 0.000000 0.000000
vt 0.000000 0.000000
vt 0.000000 0.000000
vt 0.000000 0.000000
vt 0.000000 0.000000
vt 0.000000 0.000000
vt 0.000000 0.000000
vt 0.000000 0.000000
vt 0.000000 0.000000
vt 0.000000 0.000000
vt 0.000000 0.000000
vt 0.000000 0.000000
vt 0.000000 0.000000
vt 0.000000 0.000000
vt 0.000000 0.000000
vt 0.000000 0.000000
vt 0.000000 0.000000
vt 0.000000 0.000000
vt 0.000000 0.000000
vt 0.000000 0.000000
vt 0.000000 0.000000
vt 0.000000 0.000000
vt 0.000000 0.000000
vt 0.000000 0.000000
vt 0.000000 0.000000
vt 0.000000 0.000000
vt 0.000000 0.000000
vt 0.000000 0.000000
vt 0.000000 0.000000
vt 0.000000 0.000000
vt 0.000000 0.000000
vt 0.000000 0.000000
vt 0.000000 0.000000
vt 0.000000 0.000000
vt 0.000000 0.000000
vn 0.7834 0.5301 -0.3245
vn 0.3245 0.5301 0.7834
vn -0.7834 0.5301 0.3245
vn -0.3245 0.5301 -0.7834
vn 0.3245 0.5301 -0.7834
vn 0.7834 0.5301 0.3245
vn -0.3245 0.5301 0.7834
vn -0.7834 0.5301 -0.3245
vn 0.0000 -1.0000 -0.0000
vn -0.3473 0.4200 0.8384
vn 0.8384 0.4200 0.3473
vn 0.3473 0.4200 -0.8384
vn -0.8384 0.4200 0.3473
vn 0.3473 0.4200 0.8384
vn 0.8384 0.4200 -0.3473
vn -0.3473 0.4200 -0.8384
vn -0.8384 0.4200 -0.3473
vn -0.3465 0.4247 0.8364
vn 0.8364 0.4247 0.3465
vn 0.3465 0.4247 -0.8364
vn -0.3465 0.4247 -0.8364
vn -0.8364 0.4247 0.3465
vn 0.3465 0.4247 0.8364
vn 0.8364 0.4247 -0.3465
vn -0.8364 0.4247 -0.3465
vn 0.9239 0.0000 -0.3827
vn 0.3827 0.0000 0.9239
vn -0.9239 0.0000 0.3827
vn -0.3827 0.0000 -0.9239
vn 0.3827 0.0000 -0.9239
vn 0.9239 0.0000 0.3827
vn -0.3827 0.0000 0.9239
vn -0.9239 0.0000 -0.3827
usemtl Leaves
s off
f 24/1/1 25/2/1 23/3/1
f 22/4/2 25/2/2 21/5/2
f 20/6/3 25/2/3 19/7/3
f 18/8/4 25/2/4 17/9/4
f 17/9/5 25/2/5 24/1/5
f 23/3/6 25/2/6 22/4/6
f 21/5/7 25/2/7 20/6/7
f 19/7/8 25/2/8 18/8/8
f 23/3/9 33/10/9 24/1/9
f 28/11/9 22/4/9 21/5/9
f 19/7/9 29/12/9 20/6/9
f 17/9/9 31/13/9 18/8/9
f 33/10/9 17/9/9 24/1/9
f 27/14/9 23/3/9 22/4/9
f 29/12/9 21/5/9 20/6/9
f 31/13/9 19/7/9 18/8/9
f 37/15/10 28/11/10 29/12/10
f 35/16/11 26/17/11 27/14/11
f 33/10/12 40/18/12 32/19/12
f 30/20/13 37/15/13 29/12/13
f 36/21/14 27/14/14 28/11/14
f 34/22/15 33/10/15 26/17/15
f 40/18/16 31/13/16 32/19/16
f 39/23/17 30/20/17 31/13/17
f 40/18/9 47/24/9 39/23/9
f 46/25/9 37/15/9 38/26/9
f 44/27/9 35/16/9 36/21/9
f 42/28/9 41/29/9 34/22/9
f 47/24/9 38/26/9 39/23/9
f 37/15/9 44/27/9 36/21/9
f 35/16/9 42/28/9 34/22/9
f 49/30/9 40/18/9 41/29/9
f 53/31/18 44/27/18 45/32/18
f 51/33/19 42/28/19 43/34/19
f 49/30/20 56/35/20 48/36/20
f 56/35/21 47/24/21 48/36/21
f 54/37/22 45/32/22 46/25/22
f 44/27/23 51/33/23 43/34/23
f 50/38/24 49/30/24 42/28/24
f 47/24/25 54/37/25 46/25/25
f 23/3/9 26/17/9 33/10/9
f 28/11/9 27/14/9 22/4/9
f 19/7/9 30/20/9 29/12/9
f 17/9/9 32/19/9 31/13/9
f 33/10/9 32/19/9 17/9/9
f 27/14/9 26/17/9 23/3/9
f 29/12/9 28/11/9 21/5/9
f 31/13/9 30/20/9 19/7/9
f 37/15/10 36/21/10 28/11/10
f 35/16/11 34/22/11 26/17/11
f 33/10/12 41/29/12 40/18/12
f 30/20/13 38/26/13 37/15/13
f 36/21/14 35/16/14 27/14/14
f 34/22/15 41/29/15 33/10/15
f 40/18/16 39/23/16 31/13/16
f 39/23/17 38/26/17 30/20/17
f 40/18/9 48/36/9 47/24/9
f 46/25/9 45/32/9 37/15/9
f 44/27/9 43/34/9 35/16/9
f 42/28/9 49/30/9 41/29/9
f 47/24/9 46/25/9 38/26/9
f 37/15/9 45/32/9 44/27/9
f 35/16/9 43/34/9 42/28/9
f 49/30/9 48/36/9 40/18/9
f 53/31/18 52/39/18 44/27/18
f 51/33/19 50/38/19 42/28/19
f 49/30/20 57/40/20 56/35/20
f 56/35/21 55/41/21 47/24/21
f 54/37/22 53/31/22 45/32/22
f 44/27/23 52/39/23 51/33/23
f 50/38/24 57/40/24 49/30/24
f 47/24/25 55/41/25 54/37/25
usemtl Wood
f 16/42/26 7/43/26 8/44/26
f 14/45/27 5/46/27 6/47/27
f 12/48/28 3/49/28 4/50/28
f 10/51/29 1/52/29 2/53/29
f 9/54/30 8/44/30 1/52/30
f 15/55/31 6/47/31 7/43/31
f 13/56/32 4/50/32 5/46/32
f 11/57/33 2/53/33 3/49/33
f 16/42/26 15/55/26 7/43/26
f 14/45/27 13/56/27 5/46/27
f 12/48/28 11/57/28 3/49/28
f 10/51/29 9/54/29 1/52/29
f 9/54/30 16/42/30 8/44/30
f 15/55/31 14/45/31 6/47/31
f 13/56/32 12/48/32 4/50/32
f 11/57/33 10/51/33 2/53/33
