# Blender v2.80 (sub 39) OBJ File: 'target.blend'
# www.blender.org
mtllib target.mtl
o Cube
v 4.000000 -0.022285 -4.000000
v -4.000000 -0.022285 -4.000000
v 4.000000 -0.022285 4.000000
v -4.000000 -0.022285 4.000000
v 4.000000 3.977715 -4.000000
v -4.000000 3.977715 -4.000000
v 4.000000 3.977715 4.000000
v -4.000000 3.977715 4.000000
v -2.583565 3.858219 1.202894
v -3.290672 3.858219 1.495787
v -3.583565 3.858219 2.202894
v -3.290672 3.858219 2.910001
v -2.583565 3.858219 3.202894
v -1.876458 3.858219 2.910001
v -1.583565 3.858219 2.202894
v -1.876458 3.858219 1.495788
v -2.583565 15.471606 1.694746
v -2.942880 15.471606 1.843579
v -3.091713 15.471606 2.202894
v -2.942880 15.471606 2.562209
v -2.583565 15.471606 2.711042
v -2.224250 15.471606 2.562209
v -2.075417 15.471606 2.202894
v -2.224250 15.471606 1.843579
vt 0.000000 0.000000
vt 0.424927 0.407664
vt 0.000000 0.407664
vt 0.637346 0.407664
vt 0.424927 0.000000
vt 0.637346 0.000000
vt 0.637346 0.000000
vt 0.849766 0.407664
vt 0.637346 0.407664
vt 0.424839 0.815328
vt 0.212419 0.407664
vt 0.424839 0.407664
vt 0.212419 0.815328
vt 0.000000 0.407664
vt 0.212419 0.407664
vt 0.849766 0.000000
vt 0.212420 0.815328
vt 0.000000 0.815328
vt 0.655819 1.000000
vt 0.674905 0.407664
vt 0.637346 0.407967
vt 0.868239 0.592336
vt 0.887324 0.000000
vt 0.849766 0.000303
vt 0.580702 1.000000
vt 0.599788 0.407664
vt 0.562229 0.407967
vt 0.943356 0.592336
vt 0.962441 0.000000
vt 0.924883 0.000303
vt 0.962442 0.592182
vt 1.000000 0.000303
vt 0.674905 0.999846
vt 0.712463 0.407967
vt 0.887324 0.592182
vt 0.924883 0.000303
vt 0.599788 0.999846
vt 0.637346 0.407967
vt 0.562229 0.441496
vt 0.547622 0.407664
vt 0.512357 0.421678
vt 0.981527 0.592336
vt 0.693990 1.000000
vt 0.906410 0.592336
vt 0.618873 1.000000
vt 0.512357 0.441496
vt 0.526964 0.455510
vt 0.547622 0.455510
vt 0.562229 0.421678
vt 0.526964 0.407664
vn 0.0000 1.0000 0.0000
vn 0.0000 0.0000 -1.0000
vn 0.0000 0.0000 1.0000
vn 1.0000 0.0000 0.0000
vn -1.0000 0.0000 0.0000
vn 0.9232 0.0391 -0.3824
vn 0.3824 0.0391 0.9232
vn -0.9232 0.0391 0.3824
vn -0.3824 0.0391 -0.9232
vn 0.3824 0.0391 -0.9232
vn 0.9232 0.0391 0.3824
vn -0.3824 0.0391 0.9232
vn -0.9232 0.0391 -0.3824
usemtl Brick
s off
f 7/1/1 6/2/1 8/3/1
f 2/4/2 5/5/2 1/6/2
f 3/7/3 8/8/3 4/9/3
f 1/10/4 7/11/4 3/12/4
f 4/13/5 6/14/5 2/15/5
f 7/1/1 5/5/1 6/2/1
f 2/4/2 6/2/2 5/5/2
f 3/7/3 7/16/3 8/8/3
f 1/10/4 5/17/4 7/11/4
f 4/13/5 8/18/5 6/14/5
usemtl Brick2
f 24/19/6 15/20/6 16/21/6
f 22/22/7 13/23/7 14/24/7
f 20/25/8 11/26/8 12/27/8
f 18/28/9 9/29/9 10/30/9
f 17/31/10 16/32/10 9/29/10
f 23/33/11 14/34/11 15/20/11
f 21/35/12 12/36/12 13/23/12
f 19/37/13 10/38/13 11/26/13
f 21/39/1 23/40/1 17/41/1
f 24/19/6 23/33/6 15/20/6
f 22/22/7 21/35/7 13/23/7
f 20/25/8 19/37/8 11/26/8
f 18/28/9 17/31/9 9/29/9
f 17/31/10 24/42/10 16/32/10
f 23/33/11 22/43/11 14/34/11
f 21/35/12 20/44/12 12/36/12
f 19/37/13 18/45/13 10/38/13
f 17/41/1 18/46/1 19/47/1
f 19/47/1 20/48/1 21/39/1
f 21/39/1 22/49/1 23/40/1
f 23/40/1 24/50/1 17/41/1
f 17/41/1 19/47/1 21/39/1
