# Blender v2.80 (sub 39) OBJ File: 'SkyBox.blend'
# www.blender.org
mtllib SkyBox.mtl
o CubeMap
v 1.000000 1.000000 -1.000000
v 1.000000 -1.000000 -1.000000
v 1.000000 1.000000 1.000000
v 1.000000 -1.000000 1.000000
v -1.000000 1.000000 -1.000000
v -1.000000 -1.000000 -1.000000
v -1.000000 1.000000 1.000000
v -1.000000 -1.000000 1.000000
vt 0.999900 0.000100
vt 0.000100 0.999900
vt 0.000100 0.000100
vt 0.999900 0.999900
vt 0.000100 0.000100
vt 0.999900 0.999900
vt 0.000100 0.000100
vt 0.999900 0.000100
vt 0.999900 0.999900
vt 0.000100 0.999900
vt 0.000100 0.999900
vt 0.999900 0.999900
vt 0.000100 0.000100
vt 0.000100 0.999900
vt 0.999900 0.000100
vt 0.999900 0.999900
vt 1.000000 1.000000
vt 0.000000 0.000000
vt 1.000000 0.000000
vt 0.000000 1.000000
vn 0.0000 0.0000 -1.0000
vn 1.0000 0.0000 0.0000
vn 0.0000 1.0000 0.0000
vn 0.0000 0.0000 1.0000
vn -1.0000 0.0000 0.0000
vn 0.0000 -1.0000 0.0000
usemtl Material
s off
f 8/1/1 3/2/1 4/3/1
f 6/4/2 7/5/2 8/1/2
f 8/6/3 2/7/3 6/8/3
f 8/1/1 7/9/1 3/2/1
f 6/4/2 5/10/2 7/5/2
f 8/6/3 4/11/3 2/7/3
usemtl Front
f 2/12/4 5/13/4 6/8/4
f 2/12/4 1/14/4 5/13/4
usemtl Right
f 4/15/5 1/14/5 2/7/5
f 4/15/5 3/16/5 1/14/5
usemtl Top
f 3/17/6 5/18/6 1/19/6
f 3/17/6 7/20/6 5/18/6
